<svg xmlns="http://www.w3.org/2000/svg" width="47" height="47" viewBox="0 0 47 47">
  <path id="analytics" d="M26.438,20.563V0a20.1,20.1,0,0,1,7.986,1.629A20.2,20.2,0,0,1,45.371,12.575,20.131,20.131,0,0,1,47,20.561H26.438ZM20.563,47a20.1,20.1,0,0,1-7.986-1.629A20.193,20.193,0,0,1,1.629,34.424a20.386,20.386,0,0,1,0-15.972A20.2,20.2,0,0,1,12.575,7.5a20.11,20.11,0,0,1,7.987-1.629V26.438H41.125A20.1,20.1,0,0,1,39.5,34.424,20.2,20.2,0,0,1,28.55,45.371,20.131,20.131,0,0,1,20.564,47Z" fill="gray"/>
</svg>
