<svg xmlns="http://www.w3.org/2000/svg" width="85" height="85" viewBox="0 0 85 85">
  <g id="Group_1935" data-name="Group 1935" transform="translate(-438 -326)">
    <g id="Rectangle_268" data-name="Rectangle 268" transform="translate(438 326)" fill="none" stroke="#000" stroke-width="1">
      <rect width="85" height="85" stroke="none"/>
      <rect x="0.5" y="0.5" width="84" height="84" fill="none"/>
    </g>
    <path id="user" d="M28.187,25.751c-4.72-1.72-6.229-3.171-6.229-6.279,0-1.865,1.547-3.074,2.074-4.672a37.956,37.956,0,0,0,1.086-4.868,30.383,30.383,0,0,0,.492-3.376C25.778,4.726,24.553,0,18,0s-7.78,4.726-7.608,6.557a30.62,30.62,0,0,0,.492,3.376A37.775,37.775,0,0,0,11.966,14.8c.527,1.6,2.076,2.807,2.076,4.672,0,3.108-1.509,4.559-6.229,6.279C3.075,27.475,0,29.174,0,30.375V36H36V30.375C36,29.176,32.923,27.477,28.187,25.751Z" transform="translate(463 351)"/>
  </g>
</svg>
