<svg xmlns="http://www.w3.org/2000/svg" width="20" height="21.538" viewBox="0 0 20 21.538">
  <g id="reminder-medical" transform="translate(-4.5 -2.25)">
    <path id="Path_1592" data-name="Path 1592" d="M25.038,13.5v1.538h.769v3.077a2.308,2.308,0,1,1-4.615,0V15.038h.769V13.5H19.654v4.615a3.852,3.852,0,0,0,3.077,3.768v.847a3.077,3.077,0,1,1-6.154,0v-1.68a2.308,2.308,0,1,0-1.538,0v1.68a4.615,4.615,0,1,0,9.231,0v-.847a3.852,3.852,0,0,0,3.077-3.768V13.5Zm-9.231,4.615a.769.769,0,1,1-.769.769A.769.769,0,0,1,15.808,18.115Z" transform="translate(-2.846 -3.558)"/>
    <path id="Path_1593" data-name="Path 1593" d="M21.423,3.788H18.346V2.25H16.808V3.788H10.654V2.25H9.115V3.788H6.038A1.538,1.538,0,0,0,4.5,5.327V20.712A1.538,1.538,0,0,0,6.038,22.25H9.115V20.712H6.038V5.327H9.115V6.865h1.538V5.327h6.154V6.865h1.538V5.327h3.077V8.4h1.538V5.327A1.538,1.538,0,0,0,21.423,3.788Z"/>
  </g>
</svg>
