<svg xmlns="http://www.w3.org/2000/svg" width="36" height="36" viewBox="0 0 36 36">
  <path id="coins" d="M20.25,22.5a44.122,44.122,0,0,1-9.633-.949Q6.4,20.6,5.062,19.16A48.192,48.192,0,0,0,15.75,20.25a53.958,53.958,0,0,0,8.209-.6A25.46,25.46,0,0,0,30.234,18q2.39-1.054,2.391-2.25V13.5H33.75a3.025,3.025,0,0,1,1.635.861A2,2,0,0,1,36,15.75V18q0,1.23-2.109,2.268A20.985,20.985,0,0,1,28.16,21.9,48.974,48.974,0,0,1,20.25,22.5ZM18,13.5a48.907,48.907,0,0,1-6.258-.369,29.307,29.307,0,0,1-4.535-.879,18.994,18.994,0,0,1-2.865-1.09,7.378,7.378,0,0,1-1.635-1q-.457-.422-.457-.6V8.191a16.031,16.031,0,0,0,6.188,2.2A49.83,49.83,0,0,0,18,11.25a49.69,49.69,0,0,0,9.563-.861,16.021,16.021,0,0,0,6.187-2.2V9q0,1.195-2.109,2.232a21.4,21.4,0,0,1-5.73,1.652A47.418,47.418,0,0,1,18,13.5ZM18,9a47.345,47.345,0,0,1-7.91-.615A21.4,21.4,0,0,1,4.36,6.733Q2.251,5.7,2.251,4.483T4.36,2.233A21.051,21.051,0,0,1,10.09.6,48.661,48.661,0,0,1,18,0a48.661,48.661,0,0,1,7.91.6,21.051,21.051,0,0,1,5.73,1.635q2.109,1.037,2.109,2.25T31.64,6.733a21.4,21.4,0,0,1-5.73,1.652A47.345,47.345,0,0,1,18,9ZM1.125,11.25q0,1.195,2.391,2.25a25.417,25.417,0,0,0,6.275,1.652,54.117,54.117,0,0,0,8.209.6,53.408,53.408,0,0,0,7.523-.51A29.81,29.81,0,0,0,31.5,13.852q-.035.07-.123.229a3.261,3.261,0,0,1-.545.579,6.767,6.767,0,0,1-1.107.809,13.454,13.454,0,0,1-1.9.879,18.122,18.122,0,0,1-2.813.826,37.465,37.465,0,0,1-3.991.58Q18.6,18,15.75,18a47.344,47.344,0,0,1-7.91-.615,21.4,21.4,0,0,1-5.73-1.652Q0,14.7,0,13.5V11.25A2.178,2.178,0,0,1,1.125,9.6Zm0,11.848V24.75q0,1.195,2.391,2.25a25.417,25.417,0,0,0,6.275,1.652,54.117,54.117,0,0,0,8.209.6,54.431,54.431,0,0,0,7.436-.492,29.767,29.767,0,0,0,5.994-1.371Q30.9,29.145,26.4,30.323A42.4,42.4,0,0,1,15.75,31.5a48.661,48.661,0,0,1-7.91-.6,21.094,21.094,0,0,1-5.731-1.634Q0,28.232,0,27V24.75A2.178,2.178,0,0,1,1.125,23.1ZM20.25,24.75a52.8,52.8,0,0,0,7.471-.51,29.761,29.761,0,0,0,5.959-1.388q-.492,1.758-4.992,2.953A42.01,42.01,0,0,1,18,27a48.661,48.661,0,0,1-7.91-.6,21.051,21.051,0,0,1-5.73-1.635Q2.251,23.73,2.25,22.5V20.25a2.174,2.174,0,0,1,1.02-1.582q.527.176.914.281a1.9,1.9,0,0,0-.668,1.3q0,1.195,2.355,2.25a24.781,24.781,0,0,0,6.223,1.652A53.542,53.542,0,0,0,20.25,24.75Zm12.375,4.5V27.6A2.18,2.18,0,0,1,33.75,29.25V31.5q0,1.23-2.109,2.268A20.985,20.985,0,0,1,25.91,35.4,48.975,48.975,0,0,1,18,36,42.011,42.011,0,0,1,7.312,34.805q-4.5-1.195-4.992-2.953a29.731,29.731,0,0,0,5.959,1.389,52.689,52.689,0,0,0,7.471.509,53.958,53.958,0,0,0,8.209-.6A25.46,25.46,0,0,0,30.234,31.5Q32.624,30.446,32.625,29.25Z" fill="#5f6179"/>
</svg>
