<svg xmlns="http://www.w3.org/2000/svg" width="36" height="23.396" viewBox="0 0 36 23.396">
  <g id="ios-people" transform="translate(-2.215 -7.749)">
    <path id="Path_1650" data-name="Path 1650" d="M26.841,25.749c-.9-.32-2.365-.336-3.015-.585a4.23,4.23,0,0,1-1.395-.65,8.617,8.617,0,0,1-.233-2.285,3.7,3.7,0,0,0,.794-1.122,12.447,12.447,0,0,0,.384-2.205s.529.225.738-.834c.177-.915.513-1.395.425-2.069s-.465-.513-.465-.513a6,6,0,0,0,.465-3c0-2.389-1.8-4.738-5.179-4.738a4.814,4.814,0,0,0-5.187,4.738,6.093,6.093,0,0,0,.457,3s-.376-.161-.465.513.241,1.154.425,2.069c.209,1.066.738.834.738.834a12.7,12.7,0,0,0,.384,2.205,3.7,3.7,0,0,0,.794,1.122,8.617,8.617,0,0,1-.233,2.285,4.115,4.115,0,0,1-1.395.642c-.642.249-2.108.281-3.015.6a5.659,5.659,0,0,0-3.672,5.388H30.506a5.648,5.648,0,0,0-3.664-5.4Z" transform="translate(0.839)"/>
    <path id="Path_1651" data-name="Path 1651" d="M10.915,21.358a5.438,5.438,0,0,0,2.677-.746c-1.243-1.884-.569-4.081-.826-6.134a3.383,3.383,0,0,0-3.745-3.272H8.99a3.393,3.393,0,0,0-3.712,3.272c-.257,2.045.457,4.491-.818,6.134a5.034,5.034,0,0,0,2.685.666,4.077,4.077,0,0,1-.08,1.347,2.03,2.03,0,0,1-.962.441,18.616,18.616,0,0,0-2.077.577,3.377,3.377,0,0,0-1.812,2.983H8.653a5.754,5.754,0,0,1,2.566-2.389A5.416,5.416,0,0,1,13.2,23.82s.3-.481-.7-.666a6.827,6.827,0,0,1-1.539-.537C10.81,22.44,10.915,21.358,10.915,21.358Z" transform="translate(0 0.485)"/>
    <path id="Path_1652" data-name="Path 1652" d="M26.485,21.358a5.438,5.438,0,0,1-2.677-.746c1.243-1.884.569-4.081.826-6.134a3.383,3.383,0,0,1,3.745-3.272h.032a3.393,3.393,0,0,1,3.712,3.272c.257,2.045-.457,4.491.818,6.134a5.034,5.034,0,0,1-2.685.666,4.077,4.077,0,0,0,.08,1.347,2.03,2.03,0,0,0,.962.441,18.616,18.616,0,0,1,2.077.577,3.377,3.377,0,0,1,1.812,2.983H28.747a5.754,5.754,0,0,0-2.566-2.389A5.416,5.416,0,0,0,24.2,23.82s-.3-.481.7-.666a6.827,6.827,0,0,0,1.539-.537c.153-.177.048-1.259.048-1.259Z" transform="translate(3.03 0.485)"/>
  </g>
</svg>
