<svg xmlns="http://www.w3.org/2000/svg" width="22.5" height="22.5" viewBox="0 0 22.5 22.5">
  <g id="Group_1832" data-name="Group 1832" transform="translate(-898.625 -376.878)">
    <path id="Path_1597" data-name="Path 1597" d="M25.071,10.607V25.071H10.607V10.607H25.071m0-1.607H10.607A1.607,1.607,0,0,0,9,10.607V25.071a1.607,1.607,0,0,0,1.607,1.607H25.071a1.607,1.607,0,0,0,1.607-1.607V10.607A1.607,1.607,0,0,0,25.071,9Z" transform="translate(894.446 372.7)"/>
    <path id="Path_1598" data-name="Path 1598" d="M3.857,15.107H2.25V3.857A1.607,1.607,0,0,1,3.857,2.25h11.25V3.857H3.857Z" transform="translate(896.375 374.628)"/>
  </g>
</svg>
