<svg xmlns="http://www.w3.org/2000/svg" width="36" height="22.745" viewBox="0 0 36 22.745">
  <path id="handshake-o" d="M3,14a.9.9,0,0,0,.875-.5,1.063,1.063,0,0,0,0-1A.9.9,0,0,0,3,12a.9.9,0,0,0-.875.5,1.063,1.063,0,0,0,0,1A.9.9,0,0,0,3,14Zm23.016-.906-.6-.781q-.446-.578-.648-.844t-.594-.766q-.392-.5-.664-.828t-.633-.734q-.361-.406-.7-.766l-1.953,2.188A4.071,4.071,0,0,1,16.961,12a4.08,4.08,0,0,1-3.211-1.532,3.82,3.82,0,0,1,.031-4.922l2.766-3.219a3.049,3.049,0,0,0-.8-.258,4.869,4.869,0,0,0-.742-.094q-.289-.008-.883.008T13.359,2A3.368,3.368,0,0,0,10.89,3.031L8.422,5.5H6V14q.078,0,.328-.008t.344,0q.094.008.3.031a1.137,1.137,0,0,1,.32.071q.109.048.273.133a1.148,1.148,0,0,1,.289.211L12.5,19a5.214,5.214,0,0,0,3.547,1.734A2.64,2.64,0,0,0,18,20a2.162,2.162,0,0,0,1.758-.125,2.123,2.123,0,0,0,1.133-1.328,2.475,2.475,0,0,0,1.984-.688,2.911,2.911,0,0,0,.563-.711,1.353,1.353,0,0,0,.219-.789,1,1,0,0,0,.672.156,2.242,2.242,0,0,0,1.2-.328,1.991,1.991,0,0,0,.773-.828,2.149,2.149,0,0,0-.289-2.266ZM28.5,14H30V6H28.547L26.094,3.187A3.339,3.339,0,0,0,23.453,2H20.844a2.859,2.859,0,0,0-2.281,1.047L15.3,6.844a1.761,1.761,0,0,0-.438,1.172,1.8,1.8,0,0,0,.422,1.172A2.2,2.2,0,0,0,17,10a2.162,2.162,0,0,0,1.734-.766L21.75,5.829a1.128,1.128,0,0,1,.836-.336,1,1,0,0,1,.867,1.3q.25.3.875.984t.938,1.063q.453.563,1.289,1.648t1.008,1.32A4.236,4.236,0,0,1,28.5,14ZM33,14a.9.9,0,0,0,.875-.5,1.062,1.062,0,0,0,0-1,1.016,1.016,0,0,0-1.75,0,1.063,1.063,0,0,0,0,1A.9.9,0,0,0,33,14Zm3-9V15a1.014,1.014,0,0,1-1,1H28.219a3.934,3.934,0,0,1-1.281,1.664,4.173,4.173,0,0,1-1.953.805,5.04,5.04,0,0,1-1.258,1.273,4.382,4.382,0,0,1-1.6.711,4.355,4.355,0,0,1-1.633,1.273,4.175,4.175,0,0,1-2.008.383,4.761,4.761,0,0,1-1.969.617,5.116,5.116,0,0,1-1.992-.219,8.289,8.289,0,0,1-1.828-.836A9.088,9.088,0,0,1,11.078,20.4L6.594,16H1a.961.961,0,0,1-.7-.3A.96.96,0,0,1,0,15V4.5a.961.961,0,0,1,.3-.7A.961.961,0,0,1,1,3.5H7.578q.219-.219.734-.75T9.054,2q.227-.219.688-.625a4.671,4.671,0,0,1,.789-.586q.328-.18.8-.4A3.86,3.86,0,0,1,12.3.086,6.13,6.13,0,0,1,13.359,0h1.828a4.905,4.905,0,0,1,2.828.875A4.905,4.905,0,0,1,20.843,0h2.609A5.658,5.658,0,0,1,24.5.094a6.2,6.2,0,0,1,.883.227,3.645,3.645,0,0,1,.806.413q.423.28.695.484a6.082,6.082,0,0,1,.672.617q.4.413.609.656t.641.75L29.453,4H35a1.014,1.014,0,0,1,1,1Z" transform="translate(0 0)"/>
</svg>
