<svg xmlns="http://www.w3.org/2000/svg" width="32" height="30" viewBox="0 0 32 30">
  <g id="organization-solid" transform="translate(-2 -3)">
    <path id="Path_1646" data-name="Path 1646" d="M9.8,18.8H26.2v3.08h1.6V17.2h-9V14H17.2v3.2h-9v4.68H9.8V18.8Z"/>
    <path id="Path_1647" data-name="Path 1647" d="M4,23H14a2,2,0,0,1,2,2v6a2,2,0,0,1-2,2H4a2,2,0,0,1-2-2V25a2,2,0,0,1,2-2Z"/>
    <path id="Path_1648" data-name="Path 1648" d="M22,23H32a2,2,0,0,1,2,2v6a2,2,0,0,1-2,2H22a2,2,0,0,1-2-2V25A2,2,0,0,1,22,23Z"/>
    <path id="Path_1649" data-name="Path 1649" d="M13,3H23a2,2,0,0,1,2,2v6a2,2,0,0,1-2,2H13a2,2,0,0,1-2-2V5A2,2,0,0,1,13,3Z"/>
  </g>
</svg>
