<svg xmlns="http://www.w3.org/2000/svg" width="47" height="46.812" viewBox="0 0 47 46.812">
  <g id="container-volume-line" transform="translate(-4 -4.12)">
    <path id="Path_1517" data-name="Path 1517" d="M8,18.4a50.682,50.682,0,0,0,9.87,1.441A6.47,6.47,0,0,1,19.311,17.7,48.473,48.473,0,0,1,8,16.13Z" transform="translate(2.267 6.806)"/>
    <path id="Path_1518" data-name="Path 1518" d="M7.133,41.532V10.5c.533-1.191,6.752-3.306,17.233-3.306S41.083,9.306,41.6,10.324v.47c-1.285,1.238-7.175,3.212-17.406,3.212a52.452,52.452,0,0,1-13.928-1.551v2.256a55.773,55.773,0,0,0,13.928,1.567c6.721,0,13.787-.909,17.406-2.851v7.943a8.3,8.3,0,0,1-2.836,1.379h5.969V10.387c0-5-12.8-6.267-20.367-6.267S4,5.452,4,10.387V41.532c0,4.12,8.444,5.765,15.667,6.267V44.665C12.037,44.133,7.572,42.5,7.133,41.532Z" transform="translate(0 0)"/>
    <path id="Path_1519" data-name="Path 1519" d="M8,25.1a49.036,49.036,0,0,0,9.4,1.394V24.3A45.323,45.323,0,0,1,8,22.84Z" transform="translate(2.267 10.608)"/>
    <path id="Path_1520" data-name="Path 1520" d="M41.067,18H19.133A3.133,3.133,0,0,0,16,21.133v18.8a3.133,3.133,0,0,0,3.133,3.133H41.067A3.133,3.133,0,0,0,44.2,39.933v-18.8A3.133,3.133,0,0,0,41.067,18ZM19.133,39.933v-18.8H41.067v18.8Z" transform="translate(6.8 7.865)"/>
    <path id="Path_1521" data-name="Path 1521" d="M21.4,21.7a1.1,1.1,0,0,0-1.1,1.1V34.531a1.1,1.1,0,1,0,2.193,0V22.8a1.1,1.1,0,0,0-1.1-1.1Z" transform="translate(9.237 9.962)"/>
    <path id="Path_1522" data-name="Path 1522" d="M25.4,21.82a1.1,1.1,0,0,0-1.1,1.1V34.635a1.1,1.1,0,0,0,2.193,0V22.917a1.1,1.1,0,0,0-1.1-1.1Z" transform="translate(11.503 10.03)"/>
    <path id="Path_1523" data-name="Path 1523" d="M29.4,21.7a1.1,1.1,0,0,0-1.1,1.1V34.531a1.1,1.1,0,1,0,2.193,0V22.8a1.1,1.1,0,0,0-1.1-1.1Z" transform="translate(13.77 9.962)"/>
  </g>
</svg>
