<svg xmlns="http://www.w3.org/2000/svg" width="30.019" height="30" viewBox="0 0 30.019 30">
  <path id="Path_1655" data-name="Path 1655" d="M32.892,17.41a1.568,1.568,0,0,0-1.392-.95V12a3,3,0,0,0-3-3h-9V6.915a2.25,2.25,0,1,0-3,0V9h-9a3,3,0,0,0-3,3v4.495l-.123.009A1.5,1.5,0,0,0,2.985,18v3a1.5,1.5,0,0,0,1.5,1.5H4.5V30a3,3,0,0,0,3,3h21a3,3,0,0,0,3-3V22.5A1.5,1.5,0,0,0,33,21V18.093a1.509,1.509,0,0,0-.108-.682ZM7.5,30V12h21l0,5.994,0,.006v3l0,.007L28.5,30H7.5Z" transform="translate(-2.985 -3)"/>
</svg>
