<svg xmlns="http://www.w3.org/2000/svg" width="31.5" height="36" viewBox="0 0 31.5 36">
  <path id="document" d="M29.265,36h-27a2.192,2.192,0,0,1-1.582-.65,2.145,2.145,0,0,1-.668-1.6V2.25A2.162,2.162,0,0,1,.683.668,2.162,2.162,0,0,1,2.265,0h27a2.147,2.147,0,0,1,1.6.668,2.187,2.187,0,0,1,.65,1.582v31.5A2.22,2.22,0,0,1,29.265,36ZM14.64,29.25h2.25a1.125,1.125,0,0,0,0-2.25H14.64a1.125,1.125,0,0,0,0,2.25Zm-9,0h4.5a1.125,1.125,0,0,0,0-2.25H5.64a1.125,1.125,0,0,0,0,2.25Zm0-6.75H16.89a1.125,1.125,0,0,0,0-2.25H5.64a1.125,1.125,0,0,0,0,2.25Zm0-6.75h4.5a1.125,1.125,0,0,0,0-2.25H5.64a1.125,1.125,0,0,0,0,2.25Zm9-9h-9a1.119,1.119,0,0,0-.791,1.916A1.081,1.081,0,0,0,5.64,9h9a1.119,1.119,0,0,0,.791-1.916,1.081,1.081,0,0,0-.791-.334Zm11.25,0H19.14a1.119,1.119,0,0,0-.791,1.916A1.081,1.081,0,0,0,19.14,9h6.75a1.119,1.119,0,0,0,.791-1.916,1.081,1.081,0,0,0-.791-.334Zm0,6.75H14.64a1.125,1.125,0,0,0,0,2.25H25.89a1.125,1.125,0,0,0,0-2.25Zm0,6.75h-4.5a1.125,1.125,0,0,0,0,2.25h4.5a1.125,1.125,0,0,0,0-2.25Zm0,6.75h-4.5a1.125,1.125,0,0,0,0,2.25h4.5a1.125,1.125,0,0,0,0-2.25Z" transform="translate(-0.015)"/>
</svg>
