<svg xmlns="http://www.w3.org/2000/svg" width="18" height="18" viewBox="0 0 18 18">
  <path id="gears" d="M8.4,9.3a2.642,2.642,0,0,0-.7-1.85,2.262,2.262,0,0,0-3.394,0A2.639,2.639,0,0,0,3.6,9.3a2.639,2.639,0,0,0,.7,1.85,2.262,2.262,0,0,0,3.394,0A2.642,2.642,0,0,0,8.4,9.3Zm7.2,5.234a1.316,1.316,0,0,0-.356-.92,1.111,1.111,0,0,0-1.688,0,1.38,1.38,0,0,0-.005,1.845,1.131,1.131,0,0,0,1.7,0,1.32,1.32,0,0,0,.351-.925Zm0-10.468a1.316,1.316,0,0,0-.356-.92,1.111,1.111,0,0,0-1.688,0,1.316,1.316,0,0,0-.356.92,1.32,1.32,0,0,0,.351.925,1.132,1.132,0,0,0,1.7,0,1.326,1.326,0,0,0,.352-.925ZM12,8.366v1.891a.352.352,0,0,1-.066.2.217.217,0,0,1-.15.107l-1.453.245a5.287,5.287,0,0,1-.3.777q.318.491.844,1.175a.414.414,0,0,1,.066.2.276.276,0,0,1-.066.194,10.3,10.3,0,0,1-.774.915q-.558.608-.736.608a.321.321,0,0,1-.2-.071l-1.078-.92a4.064,4.064,0,0,1-.722.317,13.179,13.179,0,0,1-.215,1.584.28.28,0,0,1-.281.245H5.128a.3.3,0,0,1-.281-.256l-.215-1.564a3.966,3.966,0,0,1-.7-.317l-1.106.91a.242.242,0,0,1-.187.071.3.3,0,0,1-.2-.082q-1.35-1.36-1.35-1.636a.362.362,0,0,1,.066-.194q.094-.143.385-.542t.441-.624a5.506,5.506,0,0,1-.328-.838L.225,10.523a.227.227,0,0,1-.16-.1.321.321,0,0,1-.066-.2V8.335a.352.352,0,0,1,.065-.2.215.215,0,0,1,.15-.107l1.453-.245a5.287,5.287,0,0,1,.3-.777q-.318-.491-.844-1.175a.414.414,0,0,1-.066-.2.317.317,0,0,1,.066-.2,8.411,8.411,0,0,1,.768-.91q.563-.6.74-.6a.321.321,0,0,1,.2.071l1.078.92a4.376,4.376,0,0,1,.722-.327A12.723,12.723,0,0,1,4.846,3a.28.28,0,0,1,.281-.245H6.871a.3.3,0,0,1,.281.256l.215,1.564a3.966,3.966,0,0,1,.7.317l1.106-.91a.261.261,0,0,1,.188-.071.3.3,0,0,1,.2.082q1.35,1.36,1.35,1.636a.4.4,0,0,1-.066.194q-.112.164-.394.552t-.422.613a7.348,7.348,0,0,1,.318.838l1.425.235a.267.267,0,0,1,.16.107.324.324,0,0,1,.066.2Zm6,5.449v1.431q0,.164-1.4.317a3.054,3.054,0,0,1-.281.532A6.023,6.023,0,0,1,16.8,17.5a.09.09,0,0,1-.038.071q-1.144.726-1.163.726-.075,0-.431-.48t-.488-.7q-.187.02-.281.02t-.281-.02q-.131.215-.488.7t-.431.48q-.019,0-1.163-.726A.09.09,0,0,1,12,17.5a6.012,6.012,0,0,1,.478-1.41,3.1,3.1,0,0,1-.281-.532q-1.4-.153-1.4-.317V13.815q0-.164,1.4-.317a2.924,2.924,0,0,1,.281-.532A6.023,6.023,0,0,1,12,11.556a.09.09,0,0,1,.038-.071q.038-.02.328-.2t.553-.347a2.336,2.336,0,0,1,.281-.164q.075,0,.431.475t.488.69q.188-.02.281-.02t.281.02a9.277,9.277,0,0,1,.863-1.145l.056-.02q.038,0,1.163.716a.09.09,0,0,1,.038.071,6.012,6.012,0,0,1-.478,1.41,2.924,2.924,0,0,1,.281.532q1.4.153,1.4.317ZM18,3.347V4.779q0,.164-1.4.317a3.054,3.054,0,0,1-.281.532,6.023,6.023,0,0,1,.478,1.41.09.09,0,0,1-.038.071q-1.144.726-1.163.726-.075,0-.431-.48t-.488-.7q-.187.02-.281.02t-.281-.02q-.131.215-.488.7t-.431.48q-.019,0-1.163-.726A.09.09,0,0,1,12,7.037a6.012,6.012,0,0,1,.478-1.41A3.1,3.1,0,0,1,12.2,5.1q-1.4-.153-1.4-.317V3.347q0-.164,1.4-.317a2.924,2.924,0,0,1,.281-.532A6.023,6.023,0,0,1,12,1.089a.09.09,0,0,1,.038-.071q.038-.02.328-.2t.553-.347A2.336,2.336,0,0,1,13.2.3q.075,0,.431.475t.488.69q.188-.02.281-.02t.281.02A9.277,9.277,0,0,1,15.544.323L15.6.3q.038,0,1.163.716a.09.09,0,0,1,.038.071,6.012,6.012,0,0,1-.478,1.41,2.924,2.924,0,0,1,.281.532q1.4.153,1.4.317Z" transform="translate(0 -0.302)"/>
</svg>
