<svg xmlns="http://www.w3.org/2000/svg" width="31.5" height="31.5" viewBox="0 0 31.5 31.5">
  <g id="stacked-scrolling-1" transform="translate(-2.25 -2.25)">
    <path id="Path_1512" data-name="Path 1512" d="M20.25,33.75H4.5A2.25,2.25,0,0,1,2.25,31.5V15.75A2.25,2.25,0,0,1,4.5,13.5H20.25a2.25,2.25,0,0,1,2.25,2.25V31.5A2.25,2.25,0,0,1,20.25,33.75ZM4.5,15.75V31.5H20.25V15.75Z"/>
    <path id="Path_1513" data-name="Path 1513" d="M28.125,25.875h-2.25V10.125H10.125V7.875h15.75a2.25,2.25,0,0,1,2.25,2.25Z"/>
    <path id="Path_1514" data-name="Path 1514" d="M33.75,18H31.5V4.5H18V2.25H31.5A2.25,2.25,0,0,1,33.75,4.5Z"/>
  </g>
</svg>
