<svg xmlns="http://www.w3.org/2000/svg" width="30.559" height="30" viewBox="0 0 30.559 30">
  <g id="Group_26" data-name="Group 26" transform="translate(-216.221 -682)">
    <path id="Path_1077" data-name="Path 1077" d="M192,166.128h9.9l-2.276,2.333,1.561,1.561,5.011-5.011L201.187,160l-1.618,1.561,2.333,2.333H192Z" transform="translate(40.582 531.989)"/>
    <path id="Path_1078" data-name="Path 1078" d="M63.032,74.921a11.921,11.921,0,1,1,8.432-20.365l2.193-2.185a15.984,15.984,0,0,0-2-1.673,14.99,14.99,0,1,0,2,22.925l-2.186-2.178a11.868,11.868,0,0,1-8.432,3.476ZM76.95,63.061,76.889,63l.061-.061.061.061Z" transform="translate(168.221 634)"/>
  </g>
</svg>
