<svg xmlns="http://www.w3.org/2000/svg" width="36" height="28.8" viewBox="0 0 36 28.8">
  <g id="bx-id-card" transform="translate(-3 -6)">
    <path id="Path_1610" data-name="Path 1610" d="M14.572,18a2.915,2.915,0,0,0,3-3,2.915,2.915,0,0,0-3-3,2.915,2.915,0,0,0-3,3,2.914,2.914,0,0,0,3,3Z" transform="translate(2.143 1.6)"/>
    <path id="Path_1611" data-name="Path 1611" d="M35.4,6H6.6A3.5,3.5,0,0,0,3,9.376v22.05A3.5,3.5,0,0,0,6.6,34.8H35.4A3.5,3.5,0,0,0,39,31.424V9.376A3.5,3.5,0,0,0,35.4,6Zm0,25.2L6.6,31.18V9.6l28.8.02Z"/>
    <path id="Path_1612" data-name="Path 1612" d="M25,13.5h8v3H25Zm2,6h6v3H27Zm-3.14,3.8c0-2.061-3.352-4.179-7.429-4.179S9,21.243,9,23.3V24H23.86Z" transform="translate(0 2.667)"/>
  </g>
</svg>
