<svg xmlns="http://www.w3.org/2000/svg" width="47" height="46.95" viewBox="0 0 47 46.95">
  <path id="network-2" d="M27.41,27.4h8.622a6.707,6.707,0,1,0,0-3.354H27.41V10.634h8.622a6.707,6.707,0,1,0,0-3.354H27.41a3.356,3.356,0,0,0-3.354,3.354V24.048H15.434a6.707,6.707,0,1,0,0,3.354h8.622V40.815a3.356,3.356,0,0,0,3.354,3.354h8.622a6.707,6.707,0,1,0,0-3.354H27.41ZM42.5,22.371a3.354,3.354,0,1,1-3.354,3.354A3.354,3.354,0,0,1,42.5,22.371ZM42.5,5.6a3.354,3.354,0,1,1-3.354,3.354A3.353,3.353,0,0,1,42.5,5.6ZM8.965,29.078a3.354,3.354,0,1,1,3.354-3.354,3.354,3.354,0,0,1-3.354,3.354ZM42.5,39.139a3.354,3.354,0,1,1-3.354,3.354A3.353,3.353,0,0,1,42.5,39.139Z" transform="translate(-2.233 -2.25)"/>
</svg>
