<svg xmlns="http://www.w3.org/2000/svg" width="32.001" height="35.418" viewBox="0 0 32.001 35.418">
  <path id="share" d="M26.667,25.25a4.92,4.92,0,0,1,3.667,1.542,5.232,5.232,0,0,1,0,7.334,5.131,5.131,0,0,1-7.334,0,5.127,5.127,0,0,1-1.5-3.708,9.6,9.6,0,0,1,.083-1.167L9,21.918a5.331,5.331,0,0,1-3.667,1.417,5.154,5.154,0,0,1-3.792-1.542A5.152,5.152,0,0,1,0,18a5.157,5.157,0,0,1,1.542-3.792,5.153,5.153,0,0,1,3.791-1.541A5.334,5.334,0,0,1,9,14.084l12.5-7.25a5.953,5.953,0,0,1-.167-1.25,5.154,5.154,0,0,1,1.542-3.792,5.434,5.434,0,0,1,7.584,0A5.1,5.1,0,0,1,32,5.542a5.245,5.245,0,0,1-1.542,3.792,5.082,5.082,0,0,1-3.792,1.583A5.172,5.172,0,0,1,23,9.417L10.5,16.75A5.953,5.953,0,0,1,10.667,18a5.953,5.953,0,0,1-.167,1.25l12.667,7.333A5.1,5.1,0,0,1,26.667,25.25Z" transform="translate(0 -0.25)"/>
</svg>
