<svg xmlns="http://www.w3.org/2000/svg" xmlns:xlink="http://www.w3.org/1999/xlink" viewBox="0 0 21 21">
  <defs>
    <clipPath id="clip-path">
      <rect id="Rectangle_2270" data-name="Rectangle 2270" width="14.407" height="11.556" fill="none"/>
    </clipPath>
  </defs>
  <g id="Group_12230" data-name="Group 12230" transform="translate(-0.5)">
    <g id="Path_11327" data-name="Path 11327" transform="translate(0.5)">
      <path d="M 10.5 20.5 C 4.985980033874512 20.5 0.5 16.0140209197998 0.5 10.5 C 0.5 4.985980033874512 4.985980033874512 0.5 10.5 0.5 C 16.0140209197998 0.5 20.5 4.985980033874512 20.5 10.5 C 20.5 16.0140209197998 16.0140209197998 20.5 10.5 20.5 Z" stroke="none"/>
      <path d="M 10.5 1 C 5.261679649353027 1 1 5.261679649353027 1 10.5 C 1 15.73831939697266 5.261679649353027 20 10.5 20 C 15.73831939697266 20 20 15.73831939697266 20 10.5 C 20 5.261679649353027 15.73831939697266 1 10.5 1 M 10.5 0 C 16.29899024963379 0 21 4.701009750366211 21 10.5 C 21 16.29899024963379 16.29899024963379 21 10.5 21 C 4.701009750366211 21 0 16.29899024963379 0 10.5 C 0 4.701009750366211 4.701009750366211 0 10.5 0 Z" stroke="none" fill="#000"/>
    </g>
    <g id="Group_12221" data-name="Group 12221" transform="translate(3.297 4.723)">
      <g id="Group_12220" data-name="Group 12220" clip-path="url(#clip-path)">
        <path id="Path_1671" data-name="Path 1671" d="M.015,30.891A7.368,7.368,0,0,0,14.4,30.658a.673.673,0,0,0-.5-.737.6.6,0,0,0-.738.5,6.106,6.106,0,0,1-11.905.194.607.607,0,0,0-.775-.465.623.623,0,0,0-.465.737" transform="translate(0 -24.996)" fill="#fff" fill-rule="evenodd"/>
        <path id="Path_1672" data-name="Path 1672" d="M19.456,1.241a1.28,1.28,0,0,0,2.56,0,1.281,1.281,0,0,0-2.56,0" transform="translate(-16.262 0)" fill="#fff" fill-rule="evenodd"/>
        <path id="Path_1673" data-name="Path 1673" d="M52.863,0a1.258,1.258,0,0,0-1.28,1.241,1.28,1.28,0,0,0,2.56,0A1.259,1.259,0,0,0,52.863,0" transform="translate(-43.114 0)" fill="#fff" fill-rule="evenodd"/>
      </g>
    </g>
  </g>
</svg>
