<svg xmlns="http://www.w3.org/2000/svg" xmlns:xlink="http://www.w3.org/1999/xlink" width="360" height="360" viewBox="0 0 360 360">
  <defs>
    <style>
      .cls-1 {
        fill: #f4f2f2;
      }

      .cls-2 {
        fill: url(#linear-gradient);
      }

      .cls-3 {
        fill: url(#linear-gradient-2);
      }

      .cls-4 {
        fill: url(#linear-gradient-3);
      }

      .cls-5 {
        fill: url(#linear-gradient-4);
      }

      .cls-6 {
        fill: url(#linear-gradient-5);
      }

      .cls-7 {
        fill: #040506;
      }

      .cls-8 {
        fill: #fff;
      }

      .cls-10, .cls-9 {
        fill: none;
        stroke: #040506;
        stroke-miterlimit: 10;
      }

      .cls-9 {
        stroke-width: 0.75px;
      }

      .cls-11 {
        fill: url(#linear-gradient-6);
      }

      .cls-12 {
        fill: url(#linear-gradient-7);
      }
    </style>
    <linearGradient id="linear-gradient" x1="0.281" y1="0.79" x2="0.538" y2="0.324" gradientUnits="objectBoundingBox">
      <stop offset="0" stop-color="#fff" stop-opacity="0"/>
      <stop offset="0.512" stop-color="#d1d1d1" stop-opacity="0.137"/>
      <stop offset="0.917" stop-color="#434342" stop-opacity="0.569"/>
      <stop offset="1" stop-color="#171716" stop-opacity="0.698"/>
    </linearGradient>
    <linearGradient id="linear-gradient-2" x1="0.281" y1="0.149" x2="0.538" y2="-0.316" gradientUnits="objectBoundingBox">
      <stop offset="0" stop-color="#fff" stop-opacity="0"/>
      <stop offset="0.546" stop-color="#cacac9" stop-opacity="0.137"/>
      <stop offset="0.977" stop-color="#232322" stop-opacity="0.569"/>
      <stop offset="1" stop-color="#171716" stop-opacity="0.6"/>
    </linearGradient>
    <linearGradient id="linear-gradient-3" x1="0.951" y1="0.714" x2="0.377" y2="0.436" gradientUnits="objectBoundingBox">
      <stop offset="0" stop-color="#fff" stop-opacity="0"/>
      <stop offset="0.721" stop-color="#9f9f9e" stop-opacity="0.125"/>
      <stop offset="1" stop-color="#171716" stop-opacity="0.302"/>
    </linearGradient>
    <linearGradient id="linear-gradient-4" x1="0.141" y1="0.653" x2="0.557" y2="0.499" gradientUnits="objectBoundingBox">
      <stop offset="0" stop-color="#fff" stop-opacity="0"/>
      <stop offset="0.819" stop-color="#525251" stop-opacity="0.298"/>
      <stop offset="1" stop-color="#171716" stop-opacity="0.4"/>
    </linearGradient>
    <linearGradient id="linear-gradient-5" x1="0.599" y1="0.4" x2="0.332" y2="0.666" gradientUnits="objectBoundingBox">
      <stop offset="0" stop-color="#fff" stop-opacity="0"/>
      <stop offset="0.672" stop-color="#c4c4c3" stop-opacity="0.102"/>
      <stop offset="1" stop-color="#171716" stop-opacity="0.4"/>
    </linearGradient>
    <linearGradient id="linear-gradient-6" x1="1.117" y1="0.807" x2="-0.11" y2="0.171" xlink:href="#linear-gradient-5"/>
    <linearGradient id="linear-gradient-7" x1="0.25" y1="-0.483" x2="1.009" y2="0.983" xlink:href="#linear-gradient-5"/>
  </defs>
  <g id="Group_12" data-name="Group 12" transform="translate(-90 -88)">
    <circle id="Ellipse_7" data-name="Ellipse 7" class="cls-1" cx="180" cy="180" r="180" transform="translate(90 88)"/>
    <g id="Group_11" data-name="Group 11" transform="translate(-8.621 -6.967)">
      <path id="Path_35" data-name="Path 35" class="cls-2" d="M228.563,277.684l-39.942-30.15v23.727s29.112,14.987,28.445,14.525S228.563,277.684,228.563,277.684Z" transform="translate(0 -2.872)"/>
      <path id="Path_36" data-name="Path 36" class="cls-3" d="M228.563,278.68l-39.942,30.15V285.1s29.112-14.988,28.445-14.525S228.563,278.68,228.563,278.68Z" transform="translate(0 -3.924)"/>
      <path id="Path_37" data-name="Path 37" class="cls-4" d="M271.864,336.005l-20.42,35.735,23.981.309,7.817-37.985Z" transform="translate(-2.872 -6.827)"/>
      <path id="Path_38" data-name="Path 38" class="cls-5" d="M312.693,371.344l-29.3-51.116-3.555,17.267,14.866,33.849Z" transform="translate(-4.17 -6.194)"/>
      <path id="Path_39" data-name="Path 39" class="cls-6" d="M251.444,185.017l35.9,76.3,84,44.184.146-24.127L301.9,249.461,275.424,185.6Z" transform="translate(-2.872 -0.014)"/>
      <rect id="Rectangle_41" data-name="Rectangle 41" class="cls-7" width="59.951" height="59.951" transform="translate(248.572 365.149) rotate(-180)"/>
      <rect id="Rectangle_42" data-name="Rectangle 42" class="cls-8" width="35.971" height="35.971" transform="translate(236.582 353.159) rotate(-180)"/>
      <circle id="Ellipse_4" data-name="Ellipse 4" class="cls-7" cx="5.995" cy="5.995" r="5.995" transform="translate(212.601 329.178)"/>
      <rect id="Rectangle_43" data-name="Rectangle 43" class="cls-7" width="59.951" height="59.951" transform="translate(368.474 365.149) rotate(-180)"/>
      <rect id="Rectangle_44" data-name="Rectangle 44" class="cls-8" width="35.971" height="35.971" transform="translate(356.484 353.159) rotate(-180)"/>
      <circle id="Ellipse_5" data-name="Ellipse 5" class="cls-7" cx="5.995" cy="5.995" r="5.995" transform="translate(332.504 329.178)"/>
      <rect id="Rectangle_45" data-name="Rectangle 45" class="cls-7" width="59.951" height="59.951" transform="translate(248.572 244.662) rotate(180)"/>
      <rect id="Rectangle_46" data-name="Rectangle 46" class="cls-8" width="35.971" height="35.971" transform="translate(236.582 232.672) rotate(180)"/>
      <circle id="Ellipse_6" data-name="Ellipse 6" class="cls-7" cx="5.995" cy="5.995" r="5.995" transform="translate(212.601 208.691)"/>
      <rect id="Rectangle_47" data-name="Rectangle 47" class="cls-7" width="71.942" height="11.99" transform="translate(212.601 268.935)"/>
      <rect id="Rectangle_48" data-name="Rectangle 48" class="cls-7" width="11.99" height="11.99" transform="translate(248.572 256.945)"/>
      <rect id="Rectangle_49" data-name="Rectangle 49" class="cls-7" width="11.99" height="11.99" transform="translate(224.591 256.945)"/>
      <rect id="Rectangle_50" data-name="Rectangle 50" class="cls-7" width="11.99" height="23.981" transform="translate(260.562 244.954)"/>
      <rect id="Rectangle_51" data-name="Rectangle 51" class="cls-7" width="83.932" height="11.99" transform="translate(284.543 209.276)"/>
      <rect id="Rectangle_52" data-name="Rectangle 52" class="cls-7" width="35.971" height="11.99" transform="translate(332.504 221.266)"/>
      <rect id="Rectangle_53" data-name="Rectangle 53" class="cls-7" width="11.99" height="11.99" transform="translate(356.484 185.295)"/>
      <rect id="Rectangle_54" data-name="Rectangle 54" class="cls-7" width="11.99" height="11.99" transform="translate(356.484 233.256)"/>
      <rect id="Rectangle_55" data-name="Rectangle 55" class="cls-7" width="11.99" height="11.99" transform="translate(332.504 185.295)"/>
      <rect id="Rectangle_56" data-name="Rectangle 56" class="cls-7" width="11.99" height="11.99" transform="translate(345.039 197.831)"/>
      <rect id="Rectangle_57" data-name="Rectangle 57" class="cls-7" width="35.971" height="11.99" transform="translate(296.533 245.247)"/>
      <rect id="Rectangle_58" data-name="Rectangle 58" class="cls-7" width="11.99" height="11.99" transform="translate(344.494 245.247)"/>
      <rect id="Rectangle_59" data-name="Rectangle 59" class="cls-7" width="11.99" height="11.99" transform="translate(332.504 256.945)"/>
      <rect id="Rectangle_60" data-name="Rectangle 60" class="cls-7" width="11.99" height="11.99" transform="translate(356.63 281.071)"/>
      <rect id="Rectangle_61" data-name="Rectangle 61" class="cls-7" width="11.99" height="11.99" transform="translate(356.484 256.945)"/>
      <rect id="Rectangle_62" data-name="Rectangle 62" class="cls-7" width="11.99" height="11.99" transform="translate(332.504 233.256)"/>
      <rect id="Rectangle_63" data-name="Rectangle 63" class="cls-7" width="11.99" height="11.99" transform="translate(308.523 233.256)"/>
      <rect id="Rectangle_64" data-name="Rectangle 64" class="cls-7" width="11.99" height="11.99" transform="translate(296.533 221.266)"/>
      <rect id="Rectangle_65" data-name="Rectangle 65" class="cls-7" width="11.99" height="11.99" transform="translate(308.523 185.295)"/>
      <rect id="Rectangle_66" data-name="Rectangle 66" class="cls-7" width="11.99" height="11.99" transform="translate(272.552 185.295)"/>
      <rect id="Rectangle_67" data-name="Rectangle 67" class="cls-7" width="11.99" height="11.99" transform="translate(308.523 197.286)"/>
      <rect id="Rectangle_68" data-name="Rectangle 68" class="cls-7" width="11.99" height="11.99" transform="translate(296.533 197.286)"/>
      <rect id="Rectangle_69" data-name="Rectangle 69" class="cls-7" width="11.99" height="11.99" transform="translate(320.513 197.286)"/>
      <rect id="Rectangle_70" data-name="Rectangle 70" class="cls-7" width="11.99" height="24.273" transform="translate(260.562 304.906)"/>
      <rect id="Rectangle_71" data-name="Rectangle 71" class="cls-7" width="11.99" height="24.273" transform="translate(284.543 304.906)"/>
      <rect id="Rectangle_72" data-name="Rectangle 72" class="cls-7" width="11.99" height="36.263" transform="translate(272.552 304.906)"/>
      <rect id="Rectangle_73" data-name="Rectangle 73" class="cls-7" width="11.99" height="12.136" transform="translate(272.552 292.842)"/>
      <rect id="Rectangle_74" data-name="Rectangle 74" class="cls-7" width="11.99" height="12.136" transform="translate(284.543 341.096)"/>
      <rect id="Rectangle_75" data-name="Rectangle 75" class="cls-7" width="35.971" height="11.99" transform="translate(236.582 280.925)"/>
      <rect id="Rectangle_76" data-name="Rectangle 76" class="cls-7" width="11.99" height="11.99" transform="translate(212.601 280.925)"/>
      <rect id="Rectangle_77" data-name="Rectangle 77" class="cls-7" width="11.99" height="11.99" transform="translate(248.572 292.916)"/>
      <rect id="Rectangle_78" data-name="Rectangle 78" class="cls-7" width="11.99" height="11.99" transform="translate(200.611 280.925)"/>
      <rect id="Rectangle_79" data-name="Rectangle 79" class="cls-7" width="27.196" height="11.99" transform="translate(200.611 256.945)"/>
      <path id="Path_1-2" data-name="Path 1-2" class="cls-9" d="M327.318,205.313" transform="translate(-6.34 -0.942)"/>
      <path id="Path_40" data-name="Path 40" class="cls-9" d="M289.137,285.534" transform="translate(-4.595 -4.609)"/>
      <path id="Path_41" data-name="Path 41" class="cls-9" d="M314.266,310.969" transform="translate(-5.743 -5.771)"/>
      <path id="Path_42" data-name="Path 42" class="cls-7" d="M364.525,260.711" transform="translate(-8.04 -3.474)"/>
      <path id="Path_43" data-name="Path 43" class="cls-10" d="M289.137,285.534" transform="translate(-4.595 -4.609)"/>
      <path id="Path_44" data-name="Path 44" class="cls-10" d="M314.266,310.969" transform="translate(-5.743 -5.771)"/>
      <path id="Path_45" data-name="Path 45" class="cls-11" d="M251.444,184.711l22.706,48.545,20.82-.584L275.424,185.3Z" transform="translate(-2.872 0)"/>
      <path id="Path_46" data-name="Path 46" class="cls-12" d="M327.993,285.534h46.852v24.273h0Z" transform="translate(-6.371 -4.609)"/>
    </g>
  </g>
</svg>
