<svg xmlns="http://www.w3.org/2000/svg" xmlns:xlink="http://www.w3.org/1999/xlink" viewBox="0 0 77.18 77.4"><defs><style>.cls-1{fill:url(#Degradado_sin_nombre_35);}.cls-2{fill:url(#Degradado_sin_nombre_34);}.cls-3{fill:url(#Degradado_sin_nombre_26);}.cls-4{fill:url(#Degradado_sin_nombre_28);}.cls-5{fill:url(#Degradado_sin_nombre_21);}.cls-6{fill:#fff;}.cls-7{fill:url(#Degradado_sin_nombre_21-2);}.cls-8{fill:url(#Degradado_sin_nombre_21-3);}</style><linearGradient id="Degradado_sin_nombre_35" x1="4.82" y1="38.66" x2="9.22" y2="31.03" gradientUnits="userSpaceOnUse"><stop offset="0" stop-color="#fff" stop-opacity="0"/><stop offset="0.46" stop-color="#ddd" stop-opacity="0.1"/><stop offset="0.82" stop-color="#737372" stop-opacity="0.43"/><stop offset="1" stop-color="#1d1e1c" stop-opacity="0.7"/></linearGradient><linearGradient id="Degradado_sin_nombre_34" x1="4.82" y1="7493.23" x2="9.22" y2="7485.6" gradientTransform="matrix(1, 0, 0, -1, 0, 7531.82)" gradientUnits="userSpaceOnUse"><stop offset="0" stop-color="#fff" stop-opacity="0"/><stop offset="0.49" stop-color="#d7d8d7" stop-opacity="0.1"/><stop offset="0.88" stop-color="#5b5c5b" stop-opacity="0.43"/><stop offset="1" stop-color="#1d1e1c" stop-opacity="0.6"/></linearGradient><linearGradient id="Degradado_sin_nombre_26" x1="38.68" y1="72.75" x2="30.84" y2="68.22" gradientUnits="userSpaceOnUse"><stop offset="0" stop-color="#fff" stop-opacity="0"/><stop offset="0.65" stop-color="#b8b8b7" stop-opacity="0.09"/><stop offset="1" stop-color="#1d1e1c" stop-opacity="0.3"/></linearGradient><linearGradient id="Degradado_sin_nombre_28" x1="39.31" y1="69.77" x2="45.17" y2="66.39" gradientUnits="userSpaceOnUse"><stop offset="0" stop-color="#fff" stop-opacity="0"/><stop offset="0.69" stop-color="#7e7f7e" stop-opacity="0.23"/><stop offset="1" stop-color="#1d1e1c" stop-opacity="0.4"/></linearGradient><linearGradient id="Degradado_sin_nombre_21" x1="56.56" y1="20.82" x2="42.82" y2="34.56" gradientUnits="userSpaceOnUse"><stop offset="0" stop-color="#fff" stop-opacity="0"/><stop offset="0.62" stop-color="#d3d3d3" stop-opacity="0.08"/><stop offset="0.95" stop-color="#3f403e" stop-opacity="0.34"/><stop offset="1" stop-color="#1d1e1c" stop-opacity="0.4"/></linearGradient><linearGradient id="Degradado_sin_nombre_21-2" x1="46.55" y1="16.79" x2="23.65" y2="3.57" xlink:href="#Degradado_sin_nombre_21"/><linearGradient id="Degradado_sin_nombre_21-3" x1="62.05" y1="36.23" x2="77.3" y2="51.48" xlink:href="#Degradado_sin_nombre_21"/></defs><g id="Layer_2" data-name="Layer 2"><g id="Capa_1" data-name="Capa 1"><path class="cls-1" d="M17.13,38.64,0,25.71V35.88s12.48,6.43,12.2,6.23S17.13,38.64,17.13,38.64Z"/><path class="cls-2" d="M17.13,38.61,0,51.54V41.37s12.48-6.43,12.2-6.23S17.13,38.61,17.13,38.61Z"/><polygon class="cls-3" points="34.46 61.95 25.71 77.27 35.99 77.4 39.34 61.12 34.46 61.95"/><polygon class="cls-4" points="51.41 77.37 38.85 55.45 37.33 62.86 43.7 77.37 51.41 77.37"/><polygon class="cls-5" points="25.71 0.13 41.1 32.84 77.12 51.79 77.18 41.45 47.34 27.76 35.99 0.38 25.71 0.13"/><rect y="51.66" width="25.71" height="25.71" transform="translate(25.71 129.04) rotate(-180)"/><rect class="cls-6" x="5.14" y="56.81" width="15.42" height="15.42" transform="translate(25.71 129.04) rotate(-180)"/><circle cx="12.85" cy="64.52" r="2.57"/><rect x="51.41" y="51.66" width="25.71" height="25.71" transform="translate(128.54 129.04) rotate(-180)"/><rect class="cls-6" x="56.56" y="56.81" width="15.42" height="15.42" transform="translate(128.54 129.04) rotate(-180)"/><circle cx="64.27" cy="64.52" r="2.57"/><rect width="25.71" height="25.71" transform="translate(25.71 25.71) rotate(180)"/><rect class="cls-6" x="5.14" y="5.14" width="15.42" height="15.42" transform="translate(25.71 25.71) rotate(180)"/><circle cx="12.85" cy="12.85" r="2.57"/><rect x="10.28" y="36.12" width="30.85" height="5.14"/><rect x="25.71" y="30.97" width="5.14" height="5.14"/><rect x="15.42" y="30.97" width="5.14" height="5.14"/><rect x="30.85" y="25.83" width="5.14" height="10.28"/><rect x="41.13" y="10.53" width="35.99" height="5.14"/><rect x="61.7" y="15.67" width="15.42" height="5.14"/><rect x="71.98" y="0.25" width="5.14" height="5.14"/><rect x="71.98" y="20.82" width="5.14" height="5.14"/><rect x="61.7" y="0.25" width="5.14" height="5.14"/><rect x="67.07" y="5.63" width="5.14" height="5.14"/><rect x="46.27" y="25.96" width="15.42" height="5.14"/><rect x="66.84" y="25.96" width="5.14" height="5.14"/><rect x="61.7" y="30.97" width="5.14" height="5.14"/><rect x="72.04" y="41.32" width="5.14" height="5.14"/><rect x="71.98" y="30.97" width="5.14" height="5.14"/><rect x="61.7" y="20.82" width="5.14" height="5.14"/><rect x="51.41" y="20.82" width="5.14" height="5.14"/><rect x="46.27" y="15.67" width="5.14" height="5.14"/><rect x="51.41" y="0.25" width="5.14" height="5.14"/><rect x="35.99" y="0.25" width="5.14" height="5.14"/><rect x="51.41" y="5.39" width="5.14" height="5.14"/><rect x="46.27" y="5.39" width="5.14" height="5.14"/><rect x="56.56" y="5.39" width="5.14" height="5.14"/><rect x="30.85" y="51.54" width="5.14" height="10.41"/><rect x="41.13" y="51.54" width="5.14" height="10.41"/><rect x="35.99" y="51.54" width="5.14" height="15.55"/><rect x="35.99" y="46.37" width="5.14" height="5.2"/><rect x="41.13" y="67.06" width="5.14" height="5.2"/><rect x="20.57" y="41.26" width="15.42" height="5.14"/><rect x="10.28" y="41.26" width="5.14" height="5.14"/><rect x="25.71" y="46.4" width="5.14" height="5.14"/><rect x="5.14" y="41.26" width="5.14" height="5.14"/><rect x="5.14" y="30.97" width="11.66" height="5.14"/><polygon class="cls-7" points="25.71 0 35.44 20.82 44.37 20.57 35.99 0.25 25.71 0"/><polygon class="cls-8" points="57.03 41.26 77.12 41.26 77.12 51.66 77.12 51.66 57.03 41.26"/></g></g></svg>