<svg xmlns="http://www.w3.org/2000/svg" width="23.812" height="23.756" viewBox="0 0 23.812 23.756">
  <path id="label" d="M23.087,11.626a2.329,2.329,0,0,1,.725,1.7,2.15,2.15,0,0,1-.725,1.645l-8.309,8.365a2.427,2.427,0,0,1-1.7.669,2.234,2.234,0,0,1-1.645-.669L.725,12.63A2.3,2.3,0,0,1,0,10.957V2.592A2.248,2.248,0,0,1,.7.947,2.317,2.317,0,0,1,2.4.25h8.309A2.27,2.27,0,0,1,12.38.919ZM4.154,6.161a1.8,1.8,0,0,0,1.283-.5A1.656,1.656,0,0,0,5.967,4.4,1.81,1.81,0,0,0,4.154,2.592,1.655,1.655,0,0,0,2.9,3.122a1.8,1.8,0,0,0-.5,1.283A1.715,1.715,0,0,0,4.154,6.162Z" transform="translate(0 -0.25)"/>
</svg>
