<svg id="Component_7_1" data-name="Component 7 – 1" xmlns="http://www.w3.org/2000/svg" width="36" height="45.818" viewBox="0 0 36 45.818">
  <g id="task" transform="translate(-5.625 -2.25)">
    <g id="Group_10744" data-name="Group 10744">
      <path id="Path_1691" data-name="Path 1691" d="M18.307,26.589l-5.875-5.875-2.307,2.307L18.307,31.2l8.344-8.344,6.383-6.383-2.307-2.323Z" transform="translate(2.045 5.41)" />
    </g>
    <g id="Group_10742" data-name="Group 10742">
      <path id="Path_1692" data-name="Path 1692" d="M38.352,7.159H33.443V5.523A3.273,3.273,0,0,0,30.17,2.25H17.08a3.273,3.273,0,0,0-3.273,3.273V7.159H8.9a3.273,3.273,0,0,0-3.273,3.273V44.8A3.273,3.273,0,0,0,8.9,48.068H38.352A3.273,3.273,0,0,0,41.625,44.8V10.432A3.273,3.273,0,0,0,38.352,7.159ZM17.08,5.523H30.17v6.545H17.08ZM38.352,44.8H8.9V10.432h4.909v4.909H33.443V10.432h4.909Z" />
    </g>
  </g>
</svg>
