<svg id="Group_1853" data-name="Group 1853" xmlns="http://www.w3.org/2000/svg" xmlns:xlink="http://www.w3.org/1999/xlink" width="36" height="36" viewBox="0 0 36 36">
  <g id="collaborate">
    <path id="Path_1564" data-name="Path 1564" d="M7.245,24.652V23.367H4.673v1.286a9,9,0,0,0,9,9H17.53V31.081H13.673a6.429,6.429,0,0,1-6.429-6.429Z" transform="translate(-2.102 -0.224)"/>
    <path id="Path_1565" data-name="Path 1565" d="M28.979,13.673v1.286H31.55V13.673a9,9,0,0,0-9-9H18.693V7.245H22.55a6.429,6.429,0,0,1,6.429,6.429Z" transform="translate(-0.693 -2.102)"/>
    <path id="Path_1566" data-name="Path 1566" d="M13.908,12.852H6.194a3.857,3.857,0,0,0-3.857,3.857V19.28H4.908V16.709a1.286,1.286,0,0,1,1.286-1.286h7.714a1.286,1.286,0,0,1,1.286,1.286V19.28h2.571V16.709a3.857,3.857,0,0,0-3.857-3.857Z" transform="translate(-2.337 -1.28)"/>
    <path id="Path_1567" data-name="Path 1567" d="M9.816,12.622A5.143,5.143,0,1,0,4.673,7.48a5.143,5.143,0,0,0,5.143,5.143Zm0-7.714A2.571,2.571,0,1,1,7.245,7.48,2.571,2.571,0,0,1,9.816,4.908Z" transform="translate(-2.102 -2.337)"/>
    <path id="Path_1568" data-name="Path 1568" d="M32.6,29.208H24.887a3.857,3.857,0,0,0-3.857,3.857v2.571H23.6V33.065a1.286,1.286,0,0,1,1.286-1.286H32.6a1.286,1.286,0,0,1,1.286,1.286v2.571h2.571V33.065A3.857,3.857,0,0,0,32.6,29.208Z" transform="translate(-0.459 0.363)"/>
    <path id="Path_1569" data-name="Path 1569" d="M23.367,23.836a5.143,5.143,0,1,0,5.143-5.143A5.143,5.143,0,0,0,23.367,23.836Zm7.714,0a2.571,2.571,0,1,1-2.571-2.571A2.571,2.571,0,0,1,31.081,23.836Z" transform="translate(-0.224 -0.693)"/>
  </g>
</svg>
